<svg width="217" height="82" viewBox="0 0 217 82" fill="none" xmlns="http://www.w3.org/2000/svg">
<path d="M98.5137 57.4024H100.207V70.1454H98.5137V57.4024Z" fill="white"/>
<path d="M110.459 68.9985C109.524 69.9208 108.389 70.382 107.054 70.382C105.719 70.382 104.585 69.9208 103.65 68.9985C102.728 68.0762 102.267 66.9414 102.267 65.5943C102.267 64.2472 102.728 63.1125 103.65 62.1901C104.585 61.2678 105.719 60.8066 107.054 60.8066C108.389 60.8066 109.524 61.2678 110.459 62.1901C111.393 63.1125 111.86 64.2472 111.86 65.5943C111.86 66.9414 111.393 68.0762 110.459 68.9985ZM107.054 68.8347C107.965 68.8347 108.729 68.5252 109.348 67.9062C109.967 67.2873 110.277 66.5167 110.277 65.5943C110.277 64.672 109.967 63.9013 109.348 63.2824C108.729 62.6634 107.965 62.354 107.054 62.354C106.156 62.354 105.398 62.6634 104.779 63.2824C104.16 63.9013 103.85 64.672 103.85 65.5943C103.85 66.5167 104.16 67.2873 104.779 67.9062C105.398 68.5252 106.156 68.8347 107.054 68.8347Z" fill="white"/>
<path d="M122.047 57.4024V59.0044H118.278V70.1454H116.604V59.0044H112.854V57.4024H122.047Z" fill="white"/>
<path d="M132.897 57.4024C134.074 57.4024 135.051 57.7969 135.828 58.5857C136.617 59.3624 137.011 60.3333 137.011 61.4984C137.011 62.6513 136.617 63.6222 135.828 64.411C135.051 65.1999 134.074 65.5943 132.897 65.5943H129.966V70.1454H128.273V57.4024H132.897ZM132.897 64.0106C133.601 64.0106 134.184 63.7739 134.645 63.3006C135.106 62.8151 135.337 62.2144 135.337 61.4984C135.337 60.7702 135.106 60.1695 134.645 59.6962C134.184 59.2228 133.601 58.9862 132.897 58.9862H129.966V64.0106H132.897Z" fill="white"/>
<path d="M140.704 68.5434H146.202V70.1454H139.011V57.4024H140.704V68.5434Z" fill="white"/>
<path d="M156.647 70.1454L155.61 67.2873H149.875L148.838 70.1454H147.036L151.787 57.4024H153.698L158.45 70.1454H156.647ZM150.458 65.7035H155.027L152.733 59.4231L150.458 65.7035Z" fill="white"/>
<path d="M167.184 57.4024V59.0044H163.416V70.1454H161.741V59.0044H157.991V57.4024H167.184Z" fill="white"/>
<path d="M176.196 59.0044H170.552V63.1367H175.959V64.7387H170.552V70.1454H168.859V57.4024H176.196V59.0044Z" fill="white"/>
<path d="M188.841 68.4524C187.566 69.7388 186.007 70.382 184.162 70.382C182.318 70.382 180.758 69.7388 179.484 68.4524C178.21 67.1659 177.572 65.6065 177.572 63.7739C177.572 61.9292 178.21 60.3697 179.484 59.0954C180.758 57.809 182.318 57.1658 184.162 57.1658C186.007 57.1658 187.566 57.809 188.841 59.0954C190.127 60.3697 190.77 61.9292 190.77 63.7739C190.77 65.6065 190.127 67.1659 188.841 68.4524ZM180.649 67.3055C181.596 68.2521 182.767 68.7254 184.162 68.7254C185.558 68.7254 186.723 68.2521 187.658 67.3055C188.604 66.3468 189.077 65.1696 189.077 63.7739C189.077 62.3661 188.604 61.1889 187.658 60.2423C186.723 59.2835 185.558 58.8041 184.162 58.8041C182.767 58.8041 181.596 59.2835 180.649 60.2423C179.714 61.1889 179.247 62.3661 179.247 63.7739C179.247 65.1696 179.714 66.3468 180.649 67.3055Z" fill="white"/>
<path d="M200.36 70.1454L197.502 65.2666H194.499V70.1454H192.806V57.4024H197.903C198.995 57.4024 199.93 57.7908 200.706 58.5675C201.483 59.3321 201.871 60.2605 201.871 61.3527C201.871 62.178 201.623 62.9304 201.125 63.6101C200.64 64.2897 200.009 64.7691 199.232 65.0482L202.236 70.1454H200.36ZM194.499 58.9862V63.7375H197.903C198.534 63.7375 199.068 63.5069 199.505 63.0457C199.954 62.5724 200.178 62.0081 200.178 61.3527C200.178 60.6974 199.954 60.1391 199.505 59.678C199.068 59.2168 198.534 58.9862 197.903 58.9862H194.499Z" fill="white"/>
<path d="M215.858 57.4024V70.1454H214.183V60.1877L210.015 67.1235H209.796L205.627 60.2059V70.1454H203.934V57.4024H205.846L209.905 64.138L213.947 57.4024H215.858Z" fill="white"/>
<path d="M115.394 47.0922C110.657 47.0922 106.744 45.5181 103.656 42.3698C100.568 39.2216 99.0234 35.3387 99.0234 30.7213C99.0234 26.0738 100.568 22.191 103.656 19.0727C106.744 15.9245 110.657 14.3503 115.394 14.3503C118.243 14.3503 120.866 15.025 123.265 16.3742C125.694 17.6935 127.583 19.4925 128.932 21.7712L123.58 24.8745C122.8 23.4653 121.691 22.3709 120.252 21.5913C118.812 20.7818 117.193 20.377 115.394 20.377C112.336 20.377 109.862 21.3365 107.973 23.2554C106.115 25.1743 105.185 27.663 105.185 30.7213C105.185 33.7496 106.115 36.2232 107.973 38.1422C109.862 40.0611 112.336 41.0206 115.394 41.0206C117.193 41.0206 118.812 40.6308 120.252 39.8512C121.721 39.0417 122.83 37.9473 123.58 36.568L128.932 39.6713C127.583 41.9501 125.709 43.764 123.31 45.1133C120.911 46.4326 118.273 47.0922 115.394 47.0922Z" fill="white"/>
<path d="M144.483 47.0922C140.975 47.0922 138.097 46.1028 135.848 44.1238C133.599 42.1449 132.475 39.4914 132.475 36.1633V14.98H138.636V35.6685C138.636 37.3176 139.101 38.6219 140.031 39.5814C140.99 40.5408 142.474 41.0206 144.483 41.0206C146.492 41.0206 147.961 40.5408 148.891 39.5814C149.85 38.6219 150.33 37.3176 150.33 35.6685V14.98H156.536V36.1633C156.536 39.4914 155.412 42.1449 153.163 44.1238C150.914 46.1028 148.021 47.0922 144.483 47.0922Z" fill="white"/>
<path d="M181.152 30.1366C183.911 31.7257 185.29 34.1244 185.29 37.3326C185.29 40.0011 184.345 42.1899 182.456 43.899C180.567 45.608 178.244 46.4626 175.485 46.4626H162.128V14.98H174.541C177.239 14.98 179.503 15.8195 181.332 17.4986C183.191 19.1477 184.121 21.2615 184.121 23.8401C184.121 26.4486 183.131 28.5475 181.152 30.1366ZM174.541 20.7818H168.334V27.7079H174.541C175.5 27.7079 176.295 27.3781 176.924 26.7185C177.584 26.0589 177.914 25.2343 177.914 24.2449C177.914 23.2554 177.599 22.4309 176.969 21.7712C176.34 21.1116 175.53 20.7818 174.541 20.7818ZM175.485 40.6608C176.535 40.6608 177.404 40.316 178.094 39.6263C178.783 38.9067 179.128 38.0072 179.128 36.9278C179.128 35.8784 178.783 35.0089 178.094 34.3193C177.404 33.5997 176.535 33.2399 175.485 33.2399H168.334V40.6608H175.485Z" fill="white"/>
<path d="M209.597 46.4626L207.709 40.7957H195.16L193.272 46.4626H186.57L197.589 14.98H205.28L216.344 46.4626H209.597ZM197.139 34.9939H205.775L201.457 22.131L197.139 34.9939Z" fill="white"/>
<path d="M36.2668 0L71.5435 20.4726V60.5774L36.2668 81.9998L1 60.5173V20.3526L36.2668 0Z" fill="white"/>
<path d="M36.1652 24.375L50.5569 32.6832V49.2997L36.1652 57.6079L21.7736 49.2997V32.6832L36.1652 24.375Z" fill="#E6E6E6"/>
<path d="M36.3385 82L1.00098 60.5775L21.3468 49.3506L36.3385 57.9062L51.3302 49.3506L71.6761 60.5833L36.3385 82Z" fill="#EBEBEB"/>
<path d="M71.6735 20.4228V60.5791L51.3276 49.3505V33.2728L36.3359 24.7354V6.86646e-05L71.6735 20.4228Z" fill="#D9D9D9"/>
<path d="M0.998383 20.4228V60.5791L21.3442 49.3505V33.2728L36.3359 24.7354V6.86646e-05L0.998383 20.4228Z" fill="white"/>
<path d="M36.3394 41.906L51.3311 49.3506L36.3394 57.9685L21.3477 49.3506L36.3394 41.906Z" fill="#A9ACB0"/>
<path d="M36.338 41.9059V24.7354L51.3296 33.2606V49.3505L36.338 41.9059Z" fill="#BABABA"/>
<path d="M36.338 41.9059V24.7354L21.3463 33.2606V49.3505L36.338 41.9059Z" fill="#E6E6E6"/>
</svg>
