<svg width="126" height="48" fill="none" xmlns="http://www.w3.org/2000/svg"><path d="M57.057 33.587h.99v7.456h-.99v-7.456ZM64.046 40.372a2.73 2.73 0 0 1-1.992.81 2.73 2.73 0 0 1-1.992-.81c-.54-.54-.81-1.203-.81-1.992 0-.788.27-1.452.81-1.992a2.73 2.73 0 0 1 1.992-.809c.781 0 1.445.27 1.992.81.546.54.82 1.203.82 1.991s-.273 1.453-.82 1.992Zm-1.992-.096c.532 0 .98-.18 1.342-.543.362-.362.543-.813.543-1.353s-.18-.99-.543-1.352a1.823 1.823 0 0 0-1.342-.544c-.526 0-.97.181-1.332.544-.362.362-.543.813-.543 1.352 0 .54.181.99.543 1.353a1.81 1.81 0 0 0 1.332.543ZM70.826 33.587v.938h-2.205v6.518h-.98v-6.518h-2.194v-.938h5.379ZM77.175 33.587c.689 0 1.26.231 1.715.692.461.455.692 1.023.692 1.705 0 .674-.23 1.242-.692 1.704-.455.462-1.026.692-1.715.692H75.46v2.663h-.99v-7.456h2.705Zm0 3.867c.412 0 .752-.139 1.022-.416.27-.284.405-.635.405-1.054 0-.426-.135-.778-.405-1.055a1.367 1.367 0 0 0-1.022-.415H75.46v2.94h1.715ZM81.743 40.106h3.216v.937h-4.207v-7.456h.99v6.519ZM91.071 41.043l-.607-1.672h-3.355l-.607 1.672h-1.055l2.78-7.456h1.119l2.78 7.456H91.07Zm-3.621-2.599h2.673l-1.342-3.675-1.331 3.675ZM97.236 33.587v.938h-2.205v6.518h-.98v-6.518h-2.194v-.938h5.38ZM102.509 34.525h-3.302v2.417h3.164v.938h-3.164v3.163h-.99v-7.456h4.292v.938ZM109.908 40.053c-.746.752-1.658 1.129-2.738 1.129-1.079 0-1.992-.377-2.737-1.13-.746-.752-1.119-1.665-1.119-2.737 0-1.08.373-1.992 1.119-2.737.745-.753 1.658-1.13 2.737-1.13 1.08 0 1.992.377 2.738 1.13.752.745 1.129 1.658 1.129 2.737 0 1.072-.377 1.985-1.129 2.738Zm-4.793-.671c.553.553 1.239.83 2.055.83.817 0 1.499-.277 2.045-.83.554-.561.831-1.25.831-2.067 0-.823-.277-1.512-.831-2.066-.546-.561-1.228-.842-2.045-.842-.816 0-1.502.28-2.055.842-.547.554-.821 1.242-.821 2.066 0 .817.274 1.506.821 2.067ZM116.648 41.043l-1.672-2.854h-1.758v2.854h-.99v-7.456h2.982c.639 0 1.186.227 1.64.682a2.2 2.2 0 0 1 .682 1.63c0 .482-.146.923-.437 1.32a2.28 2.28 0 0 1-1.107.842l1.757 2.982h-1.097Zm-3.43-6.53v2.78h1.992c.369 0 .682-.134.937-.404.263-.277.394-.607.394-.99 0-.384-.131-.71-.394-.98a1.24 1.24 0 0 0-.937-.405h-1.992ZM125.716 33.587v7.456h-.98v-5.826l-2.439 4.058h-.128l-2.439-4.047v5.815h-.991v-7.456h1.119l2.375 3.941 2.364-3.94h1.119ZM66.934 27.555c-2.772 0-5.061-.921-6.868-2.764-1.807-1.842-2.71-4.114-2.71-6.815 0-2.72.903-4.991 2.71-6.816 1.807-1.842 4.096-2.763 6.868-2.763 1.667 0 3.202.395 4.605 1.184 1.421.772 2.527 1.825 3.316 3.158l-3.131 1.816a4.777 4.777 0 0 0-1.948-1.921c-.842-.474-1.79-.71-2.842-.71-1.79 0-3.237.56-4.342 1.683-1.087 1.123-1.631 2.58-1.631 4.369 0 1.772.544 3.219 1.631 4.342 1.105 1.122 2.553 1.684 4.342 1.684 1.053 0 2-.228 2.842-.684.86-.474 1.509-1.114 1.948-1.921l3.131 1.816c-.79 1.333-1.886 2.394-3.29 3.184-1.403.772-2.947 1.158-4.63 1.158ZM83.954 27.555c-2.052 0-3.736-.58-5.052-1.737-1.316-1.158-1.974-2.71-1.974-4.658V8.765h3.605V20.87c0 .965.272 1.728.816 2.29.561.561 1.43.842 2.605.842 1.176 0 2.035-.28 2.58-.842.56-.562.841-1.325.841-2.29V8.765h3.632V21.16c0 1.947-.658 3.5-1.974 4.658-1.316 1.157-3.009 1.736-5.079 1.736ZM105.41 17.634c1.614.93 2.421 2.333 2.421 4.21 0 1.561-.553 2.842-1.658 3.842s-2.465 1.5-4.079 1.5h-7.816V8.766h7.263c1.579 0 2.904.49 3.974 1.473 1.088.965 1.631 2.202 1.631 3.71 0 1.527-.579 2.755-1.736 3.685Zm-3.869-5.474H97.91v4.053h3.631c.562 0 1.027-.193 1.395-.58.386-.385.579-.868.579-1.447 0-.579-.184-1.061-.553-1.447-.368-.386-.842-.579-1.421-.579Zm.553 11.631c.614 0 1.123-.201 1.526-.605.404-.42.605-.947.605-1.579 0-.614-.201-1.122-.605-1.526-.403-.421-.912-.632-1.526-.632H97.91v4.342h4.184ZM122.053 27.186l-1.105-3.316h-7.342l-1.105 3.316h-3.921l6.447-18.42h4.5L126 27.185h-3.947Zm-7.289-6.71h5.052l-2.526-7.526-2.526 7.526ZM20.635 0l20.64 11.979v23.465L20.636 47.98 0 35.409v-23.5L20.635 0Z" fill="#fff"/><path d="m20.575 14.262 8.42 4.861v9.723l-8.42 4.861-8.42-4.861v-9.723l8.42-4.86Z" fill="#E6E6E6"/><path d="M20.676 47.979 0 35.444l11.905-6.568 8.771 5.006 8.772-5.006 11.904 6.572-20.676 12.531Z" fill="#EBEBEB"/><path d="M41.352 11.95v23.495l-11.904-6.57v-9.407l-8.772-4.995V0l20.676 11.95Z" fill="#D9D9D9"/><path d="M0 11.95v23.495l11.904-6.57v-9.407l8.772-4.995V0L0 11.95Z" fill="#fff"/><path d="m20.676 24.519 8.772 4.356-8.772 5.042-8.772-5.042 8.772-4.356Z" fill="#A9ACB0"/><path d="M20.676 24.52V14.472l8.772 4.988v9.414l-8.772-4.356Z" fill="#BABABA"/><path d="M20.676 24.52V14.472l-8.772 4.988v9.414l8.772-4.356Z" fill="#E6E6E6"/></svg>