<svg width="657" height="251" viewBox="0 0 657 251" fill="none" xmlns="http://www.w3.org/2000/svg">
<path d="M297.279 175.999H302.441V214.847H297.279V175.999Z" fill="white"/>
<path d="M333.695 211.351C330.846 214.162 327.386 215.568 323.317 215.568C319.247 215.568 315.787 214.162 312.939 211.351C310.127 208.539 308.721 205.079 308.721 200.973C308.721 196.866 310.127 193.406 312.939 190.595C315.787 187.783 319.247 186.377 323.317 186.377C327.386 186.377 330.846 187.783 333.695 190.595C336.543 193.406 337.968 196.866 337.968 200.973C337.968 205.079 336.543 208.539 333.695 211.351ZM323.317 210.851C326.091 210.851 328.422 209.908 330.309 208.021C332.196 206.134 333.14 203.784 333.14 200.973C333.14 198.161 332.196 195.811 330.309 193.924C328.422 192.038 326.091 191.094 323.317 191.094C320.579 191.094 318.266 192.038 316.379 193.924C314.493 195.811 313.549 198.161 313.549 200.973C313.549 203.784 314.493 206.134 316.379 208.021C318.266 209.908 320.579 210.851 323.317 210.851Z" fill="white"/>
<path d="M369.022 175.999V180.883H357.534V214.847H352.428V180.883H340.996V175.999H369.022Z" fill="white"/>
<path d="M402.101 175.999C405.689 175.999 408.668 177.201 411.036 179.606C413.44 181.974 414.643 184.934 414.643 188.486C414.643 192.001 413.44 194.96 411.036 197.365C408.668 199.77 405.689 200.973 402.101 200.973H393.165V214.847H388.004V175.999H402.101ZM402.101 196.144C404.246 196.144 406.022 195.423 407.428 193.98C408.834 192.5 409.537 190.669 409.537 188.486C409.537 186.266 408.834 184.434 407.428 182.991C406.022 181.549 404.246 180.827 402.101 180.827H393.165V196.144H402.101Z" fill="white"/>
<path d="M425.9 209.963H442.66V214.847H420.739V175.999H425.9V209.963Z" fill="white"/>
<path d="M474.505 214.847L471.342 206.134H453.86L450.697 214.847H445.203L459.688 175.999H465.515L480 214.847H474.505ZM455.636 201.306H469.566L462.573 182.159L455.636 201.306Z" fill="white"/>
<path d="M506.627 175.999V180.883H495.139V214.847H490.033V180.883H478.601V175.999H506.627Z" fill="white"/>
<path d="M534.1 180.883H516.896V193.48H533.379V198.364H516.896V214.847H511.735V175.999H534.1V180.883Z" fill="white"/>
<path d="M572.65 209.686C568.765 213.607 564.011 215.568 558.387 215.568C552.763 215.568 548.009 213.607 544.124 209.686C540.24 205.764 538.297 201.01 538.297 195.423C538.297 189.799 540.24 185.045 544.124 181.16C548.009 177.238 552.763 175.277 558.387 175.277C564.011 175.277 568.765 177.238 572.65 181.16C576.572 185.045 578.533 189.799 578.533 195.423C578.533 201.01 576.572 205.764 572.65 209.686ZM547.676 206.189C550.562 209.075 554.132 210.518 558.387 210.518C562.642 210.518 566.194 209.075 569.043 206.189C571.928 203.266 573.371 199.678 573.371 195.423C573.371 191.131 571.928 187.542 569.043 184.656C566.194 181.734 562.642 180.272 558.387 180.272C554.132 180.272 550.562 181.734 547.676 184.656C544.827 187.542 543.403 191.131 543.403 195.423C543.403 199.678 544.827 203.266 547.676 206.189Z" fill="white"/>
<path d="M607.769 214.847L599.056 199.974H589.899V214.847H584.737V175.999H600.277C603.607 175.999 606.455 177.183 608.823 179.551C611.191 181.882 612.375 184.712 612.375 188.042C612.375 190.558 611.617 192.851 610.1 194.923C608.62 196.995 606.696 198.457 604.328 199.308L613.485 214.847H607.769ZM589.899 180.827V195.312H600.277C602.201 195.312 603.829 194.609 605.16 193.203C606.529 191.76 607.214 190.04 607.214 188.042C607.214 186.044 606.529 184.342 605.16 182.936C603.829 181.53 602.201 180.827 600.277 180.827H589.899Z" fill="white"/>
<path d="M655.015 175.999V214.847H649.909V184.49L637.201 205.634H636.535L623.826 184.545V214.847H618.665V175.999H624.492L636.868 196.533L649.188 175.999H655.015Z" fill="white"/>
<path d="M348.745 144.567C334.303 144.567 322.374 139.768 312.959 130.17C303.544 120.572 298.837 108.735 298.837 94.6583C298.837 80.4902 303.544 68.653 312.959 59.1466C322.374 49.5489 334.303 44.75 348.745 44.75C357.429 44.75 365.427 46.8067 372.74 50.92C380.144 54.9419 385.902 60.4263 390.016 67.3733L373.699 76.8339C371.323 72.5378 367.941 69.2014 363.553 66.8248C359.166 64.3568 354.23 63.1228 348.745 63.1228C339.422 63.1228 331.881 66.0479 326.122 71.8979C320.455 77.748 317.621 85.3348 317.621 94.6583C317.621 103.89 320.455 111.432 326.122 117.282C331.881 123.132 339.422 126.057 348.745 126.057C354.23 126.057 359.166 124.868 363.553 122.492C368.032 120.024 371.414 116.687 373.699 112.483L390.016 121.943C385.902 128.89 380.189 134.42 372.877 138.534C365.564 142.556 357.52 144.567 348.745 144.567Z" fill="white"/>
<path d="M437.425 144.567C426.73 144.567 417.955 141.55 411.1 135.517C404.244 129.484 400.816 121.395 400.816 111.249V46.6696H419.6V109.741C419.6 114.768 421.017 118.744 423.851 121.669C426.776 124.594 431.301 126.057 437.425 126.057C443.549 126.057 448.028 124.594 450.862 121.669C453.787 118.744 455.249 114.768 455.249 109.741V46.6696H474.171V111.249C474.171 121.395 470.743 129.484 463.887 135.517C457.032 141.55 448.211 144.567 437.425 144.567Z" fill="white"/>
<path d="M549.214 92.8759C557.623 97.7205 561.828 105.033 561.828 114.814C561.828 122.949 558.949 129.622 553.19 134.832C547.432 140.042 540.348 142.647 531.938 142.647H491.216V46.6696H529.059C537.285 46.6696 544.187 49.229 549.762 54.3478C555.43 59.3751 558.263 65.8194 558.263 73.6804C558.263 81.6328 555.247 88.0313 549.214 92.8759ZM529.059 64.3568H510.137V85.4719H529.059C531.984 85.4719 534.406 84.4664 536.326 82.4555C538.337 80.4445 539.342 77.9308 539.342 74.9144C539.342 71.8979 538.382 69.3842 536.463 67.3733C534.543 65.3623 532.075 64.3568 529.059 64.3568ZM531.938 124.96C535.137 124.96 537.788 123.909 539.89 121.806C541.993 119.612 543.044 116.87 543.044 113.58C543.044 110.38 541.993 107.73 539.89 105.627C537.788 103.433 535.137 102.337 531.938 102.337H510.137V124.96H531.938Z" fill="white"/>
<path d="M635.932 142.647L630.174 125.371H591.92L586.161 142.647H565.732L599.324 46.6696H622.77L656.499 142.647H635.932ZM597.953 107.684H624.278L611.115 68.4702L597.953 107.684Z" fill="white"/>
<path d="M107.514 1L215.059 63.4127V185.676L107.514 250.984L0 185.493V63.0467L107.514 1Z" fill="white"/>
<path d="M107.202 75.3086L151.077 100.637V151.294L107.202 176.622L63.3281 151.294V100.637L107.202 75.3086Z" fill="#E6E6E6"/>
<path d="M107.733 250.984L0.00292969 185.676L62.0292 151.45L107.733 177.532L153.436 151.45L215.463 185.694L107.733 250.984Z" fill="#EBEBEB"/>
<path d="M215.46 63.2594V185.68L153.434 151.448V102.434L107.73 76.4067V0.998825L215.46 63.2594Z" fill="#D9D9D9"/>
<path d="M-0.000366211 63.2594V185.68L62.0259 151.448V102.434L107.729 76.4067V0.998825L-0.000366211 63.2594Z" fill="white"/>
<path d="M107.73 128.754L153.434 151.449L107.73 177.722L62.0264 151.449L107.73 128.754Z" fill="#A9ACB0"/>
<path d="M107.728 128.752V76.4062L153.431 102.396V151.448L107.728 128.752Z" fill="#BABABA"/>
<path d="M107.728 128.752V76.4062L62.024 102.396V151.448L107.728 128.752Z" fill="#E6E6E6"/>
</svg>
