<svg width="150" height="58" fill="none" xmlns="http://www.w3.org/2000/svg"><path d="M67.924 39.984h1.18v8.876h-1.18v-8.876ZM76.244 48.062c-.65.642-1.441.963-2.371.963-.93 0-1.72-.321-2.371-.963-.643-.643-.964-1.433-.964-2.372 0-.938.321-1.728.964-2.37.65-.643 1.441-.965 2.371-.965.93 0 1.72.322 2.371.964.651.643.977 1.433.977 2.371 0 .939-.326 1.73-.977 2.372Zm-2.371-.115c.634 0 1.166-.215 1.598-.646.43-.431.646-.968.646-1.61 0-.643-.215-1.18-.646-1.611-.431-.431-.964-.647-1.598-.647-.626 0-1.154.216-1.585.647-.431.431-.647.968-.647 1.61 0 .643.216 1.18.647 1.61.431.432.96.647 1.585.647ZM84.316 39.984V41.1H81.69v7.76h-1.166V41.1h-2.613v-1.116h6.404ZM91.874 39.984c.82 0 1.5.275 2.041.824.55.541.825 1.218.825 2.03 0 .802-.275 1.479-.825 2.028-.54.55-1.221.824-2.041.824h-2.042v3.17h-1.179v-8.876h3.22Zm0 4.603c.49 0 .896-.165 1.217-.494.321-.339.482-.757.482-1.256 0-.507-.16-.925-.482-1.255-.321-.33-.727-.495-1.217-.495h-2.042v3.5h2.042ZM97.312 47.745h3.829v1.115h-5.009v-8.876h1.18v7.76ZM108.417 48.86l-.723-1.99H103.7l-.723 1.99h-1.255l3.31-8.876h1.331l3.31 8.876h-1.256Zm-4.311-3.094h3.183l-1.598-4.374-1.585 4.374ZM115.757 39.984V41.1h-2.625v7.76h-1.167V41.1h-2.612v-1.116h6.404ZM122.034 41.1h-3.931v2.878h3.766v1.116h-3.766v3.766h-1.179v-8.876h5.11V41.1ZM130.842 47.681c-.888.896-1.974 1.344-3.259 1.344s-2.371-.448-3.259-1.344c-.887-.896-1.331-1.982-1.331-3.259 0-1.285.444-2.37 1.331-3.258.888-.897 1.974-1.345 3.259-1.345s2.371.448 3.259 1.344c.896.888 1.344 1.974 1.344 3.26 0 1.276-.448 2.362-1.344 3.258Zm-5.706-.799c.659.66 1.475.99 2.447.99s1.784-.33 2.435-.99c.659-.668.989-1.487.989-2.46 0-.98-.33-1.8-.989-2.46-.651-.668-1.463-1.001-2.435-1.001s-1.788.334-2.447 1.001c-.651.66-.977 1.48-.977 2.46 0 .973.326 1.792.977 2.46ZM138.866 48.86l-1.991-3.398h-2.092v3.398h-1.179v-8.876h3.55c.761 0 1.412.27 1.953.812a2.62 2.62 0 0 1 .811 1.94c0 .575-.173 1.099-.52 1.572a2.713 2.713 0 0 1-1.318 1.002l2.092 3.55h-1.306Zm-4.083-7.773v3.31h2.371c.44 0 .812-.16 1.116-.482.313-.33.469-.723.469-1.18a1.61 1.61 0 0 0-.469-1.166 1.477 1.477 0 0 0-1.116-.482h-2.371ZM149.661 39.984v8.876h-1.167v-6.936l-2.903 4.831h-.153l-2.903-4.818v6.923h-1.18v-8.876h1.332l2.828 4.692 2.815-4.692h1.331ZM79.683 32.803c-3.3 0-6.025-1.097-8.177-3.29-2.15-2.193-3.226-4.898-3.226-8.114 0-3.237 1.075-5.942 3.227-8.114 2.15-2.193 4.876-3.29 8.176-3.29 1.984 0 3.812.47 5.482 1.41 1.692.92 3.008 2.173 3.948 3.76l-3.728 2.162a5.686 5.686 0 0 0-2.319-2.287c-1.002-.564-2.13-.846-3.383-.846-2.13 0-3.853.668-5.169 2.005-1.295 1.336-1.942 3.07-1.942 5.2 0 2.11.647 3.833 1.942 5.17 1.316 1.336 3.039 2.004 5.17 2.004 1.252 0 2.38-.271 3.383-.814 1.023-.564 1.796-1.326 2.318-2.287l3.728 2.161c-.94 1.588-2.245 2.851-3.916 3.791-1.671.919-3.509 1.379-5.514 1.379ZM99.945 32.803c-2.444 0-4.448-.69-6.015-2.068-1.566-1.379-2.35-3.227-2.35-5.545V10.434h4.292v14.411c0 1.149.324 2.057.972 2.726.668.668 1.702 1.002 3.101 1.002s2.423-.334 3.07-1.002c.668-.669 1.003-1.577 1.003-2.726v-14.41h4.323V25.19c0 2.318-.783 4.166-2.35 5.545-1.566 1.378-3.582 2.068-6.046 2.068ZM125.487 20.992c1.922 1.107 2.882 2.778 2.882 5.012 0 1.86-.658 3.384-1.973 4.574-1.316 1.19-2.935 1.786-4.856 1.786h-9.305v-21.93h8.647c1.88 0 3.456.585 4.73 1.755 1.295 1.149 1.943 2.62 1.943 4.417 0 1.817-.689 3.279-2.068 4.386Zm-4.605-6.516h-4.323V19.3h4.323c.668 0 1.222-.23 1.66-.689.46-.46.689-1.034.689-1.723 0-.69-.219-1.264-.657-1.723-.439-.46-1.003-.69-1.692-.69Zm.658 13.847c.731 0 1.336-.24 1.817-.72.48-.502.72-1.129.72-1.88 0-.732-.24-1.337-.72-1.818-.481-.5-1.086-.752-1.817-.752h-4.981v5.17h4.981ZM145.301 32.364l-1.316-3.947h-8.74l-1.316 3.947h-4.668l7.675-21.93h5.357L150 32.364h-4.699Zm-8.678-7.989h6.015l-3.007-8.96-3.008 8.96ZM24.565 0l24.573 14.26v27.936L24.565 57.118 0 42.154V14.177L24.565 0Z" fill="#fff"/><path d="m24.494 16.979 10.024 5.787V34.34l-10.024 5.787-10.025-5.787V22.766l10.025-5.787Z" fill="#E6E6E6"/><path d="M24.615 57.118 0 42.196l14.172-7.82 10.443 5.959 10.443-5.96L49.23 42.2 24.615 57.118Z" fill="#EBEBEB"/><path d="M49.23 14.226v27.97l-14.173-7.82v-11.2L24.615 17.23V0l24.614 14.226Z" fill="#D9D9D9"/><path d="M0 14.226v27.97l14.172-7.82v-11.2l10.443-5.946V0L0 14.226Z" fill="#fff"/><path d="m24.614 29.19 10.443 5.185-10.443 6.003-10.442-6.003 10.442-5.185Z" fill="#A9ACB0"/><path d="M24.614 29.19V17.23l10.442 5.938v11.207L24.614 29.19Z" fill="#BABABA"/><path d="M24.614 29.19V17.23L14.17 23.168v11.207l10.443-5.185Z" fill="#E6E6E6"/></svg>