<svg width="126" height="48" viewBox="0 0 126 48" fill="none" xmlns="http://www.w3.org/2000/svg">
<path d="M57.0566 33.5872H58.0472V41.0432H57.0566V33.5872Z" fill="white"/>
<path d="M64.0457 40.3722C63.4989 40.9118 62.835 41.1817 62.0539 41.1817C61.2728 41.1817 60.6089 40.9118 60.0621 40.3722C59.5224 39.8325 59.2526 39.1685 59.2526 38.3803C59.2526 37.5921 59.5224 36.9282 60.0621 36.3885C60.6089 35.8489 61.2728 35.579 62.0539 35.579C62.835 35.579 63.4989 35.8489 64.0457 36.3885C64.5925 36.9282 64.8659 37.5921 64.8659 38.3803C64.8659 39.1685 64.5925 39.8325 64.0457 40.3722ZM62.0539 40.2763C62.5865 40.2763 63.0338 40.0952 63.396 39.7331C63.7581 39.3709 63.9392 38.92 63.9392 38.3803C63.9392 37.8407 63.7581 37.3898 63.396 37.0276C63.0338 36.6655 62.5865 36.4844 62.0539 36.4844C61.5284 36.4844 61.0846 36.6655 60.7225 37.0276C60.3603 37.3898 60.1793 37.8407 60.1793 38.3803C60.1793 38.92 60.3603 39.3709 60.7225 39.7331C61.0846 40.0952 61.5284 40.2763 62.0539 40.2763Z" fill="white"/>
<path d="M70.826 33.5872V34.5245H68.6212V41.0432H67.6412V34.5245H65.447V33.5872H70.826Z" fill="white"/>
<path d="M77.1747 33.5872C77.8635 33.5872 78.4351 33.818 78.8895 34.2795C79.3511 34.734 79.5819 35.3021 79.5819 35.9838C79.5819 36.6584 79.3511 37.2264 78.8895 37.688C78.4351 38.1496 77.8635 38.3803 77.1747 38.3803H75.4598V41.0432H74.4692V33.5872H77.1747ZM77.1747 37.4537C77.5865 37.4537 77.9274 37.3152 78.1972 37.0383C78.467 36.7542 78.602 36.4027 78.602 35.9838C78.602 35.5577 78.467 35.2062 78.1972 34.9293C77.9274 34.6523 77.5865 34.5139 77.1747 34.5139H75.4598V37.4537H77.1747Z" fill="white"/>
<path d="M81.7425 40.1059H84.9592V41.0432H80.7519V33.5872H81.7425V40.1059Z" fill="white"/>
<path d="M91.0711 41.0432L90.464 39.3709H87.1088L86.5017 41.0432H85.4472L88.2272 33.5872H89.3456L92.1256 41.0432H91.0711ZM87.4496 38.4442H90.1231L88.7811 34.7695L87.4496 38.4442Z" fill="white"/>
<path d="M97.2361 33.5872V34.5245H95.0313V41.0432H94.0513V34.5245H91.8571V33.5872H97.2361Z" fill="white"/>
<path d="M102.509 34.5245H99.2071V36.9424H102.371V37.8797H99.2071V41.0432H98.2165V33.5872H102.509V34.5245Z" fill="white"/>
<path d="M109.908 40.0526C109.162 40.8053 108.25 41.1817 107.17 41.1817C106.091 41.1817 105.178 40.8053 104.433 40.0526C103.687 39.2999 103.314 38.3874 103.314 37.3152C103.314 36.2359 103.687 35.3234 104.433 34.5778C105.178 33.8251 106.091 33.4487 107.17 33.4487C108.25 33.4487 109.162 33.8251 109.908 34.5778C110.66 35.3234 111.037 36.2359 111.037 37.3152C111.037 38.3874 110.66 39.2999 109.908 40.0526ZM105.115 39.3816C105.668 39.9354 106.354 40.2124 107.17 40.2124C107.987 40.2124 108.669 39.9354 109.215 39.3816C109.769 38.8206 110.046 38.1318 110.046 37.3152C110.046 36.4915 109.769 35.8027 109.215 35.2488C108.669 34.6878 107.987 34.4074 107.17 34.4074C106.354 34.4074 105.668 34.6878 105.115 35.2488C104.568 35.8027 104.294 36.4915 104.294 37.3152C104.294 38.1318 104.568 38.8206 105.115 39.3816Z" fill="white"/>
<path d="M116.648 41.0432L114.976 38.1886H113.218V41.0432H112.228V33.5872H115.21C115.849 33.5872 116.396 33.8144 116.85 34.2689C117.305 34.7162 117.532 35.2595 117.532 35.8986C117.532 36.3814 117.386 36.8217 117.095 37.2193C116.811 37.617 116.442 37.8975 115.988 38.0608L117.745 41.0432H116.648ZM113.218 34.5139V37.2939H115.21C115.579 37.2939 115.892 37.159 116.147 36.8891C116.41 36.6122 116.541 36.282 116.541 35.8986C116.541 35.5151 116.41 35.1885 116.147 34.9186C115.892 34.6488 115.579 34.5139 115.21 34.5139H113.218Z" fill="white"/>
<path d="M125.716 33.5872V41.0432H124.736V35.2169L122.297 39.2751H122.169L119.73 35.2275V41.0432H118.739V33.5872H119.858L122.233 37.5282L124.597 33.5872H125.716Z" fill="white"/>
<path d="M66.9337 27.5545C64.1619 27.5545 61.8724 26.6335 60.0655 24.7914C58.2585 22.9493 57.355 20.6774 57.355 17.9757C57.355 15.2565 58.2585 12.9846 60.0655 11.1601C61.8724 9.31801 64.1619 8.39697 66.9337 8.39697C68.6004 8.39697 70.1354 8.7917 71.5389 9.58116C72.9599 10.3531 74.0652 11.4057 74.8546 12.739L71.7231 14.5547C71.267 13.7302 70.6179 13.0899 69.7758 12.6337C68.9337 12.1601 67.9863 11.9232 66.9337 11.9232C65.1443 11.9232 63.697 12.4846 62.5917 13.6074C61.504 14.7302 60.9602 16.1863 60.9602 17.9757C60.9602 19.7476 61.504 21.195 62.5917 22.3177C63.697 23.4405 65.1443 24.0019 66.9337 24.0019C67.9863 24.0019 68.9337 23.7739 69.7758 23.3177C70.6354 22.8441 71.2845 22.2037 71.7231 21.3967L74.8546 23.2125C74.0652 24.5458 72.9687 25.6072 71.5652 26.3966C70.1617 27.1685 68.6179 27.5545 66.9337 27.5545Z" fill="white"/>
<path d="M83.9538 27.5545C81.9012 27.5545 80.217 26.9755 78.9012 25.8177C77.5855 24.6598 76.9276 23.1072 76.9276 21.1599V8.76539H80.5328V20.8704C80.5328 21.8353 80.8047 22.5984 81.3485 23.1598C81.9099 23.7212 82.7783 24.0019 83.9538 24.0019C85.1292 24.0019 85.9888 23.7212 86.5326 23.1598C87.094 22.5984 87.3747 21.8353 87.3747 20.8704V8.76539H91.0062V21.1599C91.0062 23.1072 90.3484 24.6598 89.0326 25.8177C87.7168 26.9755 86.0239 27.5545 83.9538 27.5545Z" fill="white"/>
<path d="M105.409 17.6336C107.023 18.5634 107.83 19.9669 107.83 21.8441C107.83 23.4054 107.278 24.6861 106.172 25.6861C105.067 26.6861 103.707 27.1861 102.093 27.1861H94.2778V8.76539H101.541C103.12 8.76539 104.444 9.2566 105.514 10.239C106.602 11.2039 107.146 12.4408 107.146 13.9495C107.146 15.4758 106.567 16.7038 105.409 17.6336ZM101.541 12.1601H97.9093V16.2126H101.541C102.102 16.2126 102.567 16.0196 102.935 15.6337C103.321 15.2477 103.514 14.7653 103.514 14.1863C103.514 13.6074 103.33 13.1249 102.962 12.739C102.593 12.353 102.12 12.1601 101.541 12.1601ZM102.093 23.7914C102.707 23.7914 103.216 23.5897 103.62 23.1862C104.023 22.7651 104.225 22.2388 104.225 21.6072C104.225 20.9932 104.023 20.4845 103.62 20.081C103.216 19.6599 102.707 19.4494 102.093 19.4494H97.9093V23.7914H102.093Z" fill="white"/>
<path d="M122.053 27.1861L120.947 23.8703H113.606L112.5 27.1861H108.579L115.027 8.76539H119.526L126 27.1861H122.053ZM114.763 20.4757H119.816L117.29 12.9495L114.763 20.4757Z" fill="white"/>
<path d="M20.6349 0L41.2755 11.9787V35.4443L20.6349 47.9787L0 35.4091V11.9084L20.6349 0Z" fill="white"/>
<path d="M20.5757 14.2622L28.9964 19.1234V28.8458L20.5757 33.707L12.155 28.8458V19.1234L20.5757 14.2622Z" fill="#E6E6E6"/>
<path d="M20.6763 47.979L0 35.4445L11.9045 28.8756L20.6763 33.8815L29.448 28.8756L41.3525 35.4479L20.6763 47.979Z" fill="#EBEBEB"/>
<path d="M41.3528 11.9495V35.4453L29.4483 28.8754V19.4682L20.6765 14.4729V5.72205e-05L41.3528 11.9495Z" fill="#D9D9D9"/>
<path d="M0.000240326 11.9495V35.4453L11.9048 28.8754V19.4682L20.6765 14.4729V5.72205e-05L0.000240326 11.9495Z" fill="white"/>
<path d="M20.6758 24.519L29.4476 28.8749L20.6758 33.9173L11.9041 28.8749L20.6758 24.519Z" fill="#A9ACB0"/>
<path d="M20.6753 24.5193V14.4727L29.447 19.4608V28.8752L20.6753 24.5193Z" fill="#BABABA"/>
<path d="M20.6753 24.5193V14.4727L11.9035 19.4608V28.8752L20.6753 24.5193Z" fill="#E6E6E6"/>
</svg>
