<svg width="217" height="82" fill="none" xmlns="http://www.w3.org/2000/svg"><path d="M98.514 57.403h1.693v12.743h-1.693V57.403ZM110.459 68.999c-.935.922-2.07 1.383-3.405 1.383s-2.469-.46-3.404-1.383c-.922-.923-1.383-2.057-1.383-3.404 0-1.348.461-2.482 1.383-3.405.935-.922 2.069-1.383 3.404-1.383s2.47.461 3.405 1.383c.934.923 1.401 2.057 1.401 3.405 0 1.347-.467 2.481-1.401 3.404Zm-3.405-.164c.911 0 1.675-.31 2.294-.928.619-.62.929-1.39.929-2.312 0-.923-.31-1.693-.929-2.312-.619-.62-1.383-.929-2.294-.929-.898 0-1.656.31-2.275.929s-.929 1.39-.929 2.312c0 .922.31 1.692.929 2.311.619.62 1.377.929 2.275.929ZM122.047 57.403v1.602h-3.769v11.14h-1.674v-11.14h-3.75v-1.602h9.193ZM132.897 57.403c1.177 0 2.154.394 2.931 1.183.789.777 1.183 1.748 1.183 2.913 0 1.152-.394 2.123-1.183 2.912-.777.79-1.754 1.184-2.931 1.184h-2.931v4.55h-1.693V57.404h4.624Zm0 6.608c.704 0 1.287-.237 1.748-.71.461-.486.692-1.086.692-1.802 0-.729-.231-1.33-.692-1.803-.461-.473-1.044-.71-1.748-.71h-2.931v5.025h2.931ZM140.704 68.544h5.498v1.602h-7.191V57.403h1.693v11.14ZM156.647 70.146l-1.037-2.859h-5.735l-1.037 2.859h-1.802l4.751-12.743h1.911l4.752 12.743h-1.803Zm-6.189-4.442h4.569l-2.294-6.28-2.275 6.28ZM167.184 57.403v1.602h-3.768v11.14h-1.675v-11.14h-3.75v-1.602h9.193ZM176.196 59.005h-5.644v4.132h5.407v1.602h-5.407v5.407h-1.693V57.403h7.337v1.602ZM188.841 68.453c-1.275 1.286-2.834 1.93-4.679 1.93-1.844 0-3.404-.644-4.678-1.93-1.274-1.287-1.912-2.846-1.912-4.679 0-1.845.638-3.404 1.912-4.678 1.274-1.287 2.834-1.93 4.678-1.93 1.845 0 3.404.643 4.679 1.93 1.286 1.274 1.929 2.833 1.929 4.678 0 1.833-.643 3.392-1.929 4.679Zm-8.192-1.147c.947.946 2.118 1.42 3.513 1.42 1.396 0 2.561-.474 3.496-1.42.946-.959 1.419-2.136 1.419-3.532 0-1.408-.473-2.585-1.419-3.532-.935-.958-2.1-1.438-3.496-1.438-1.395 0-2.566.48-3.513 1.438-.935.947-1.402 2.124-1.402 3.532 0 1.396.467 2.573 1.402 3.532ZM200.36 70.146l-2.858-4.88h-3.003v4.88h-1.693V57.403h5.097c1.092 0 2.027.388 2.803 1.165.777.764 1.165 1.693 1.165 2.785a3.73 3.73 0 0 1-.746 2.257 3.894 3.894 0 0 1-1.893 1.438l3.004 5.098h-1.876Zm-5.861-11.16v4.752h3.404c.631 0 1.165-.23 1.602-.692a2.375 2.375 0 0 0 .673-1.693c0-.655-.224-1.214-.673-1.675a2.123 2.123 0 0 0-1.602-.692h-3.404ZM215.858 57.403v12.743h-1.675v-9.958l-4.168 6.936h-.219l-4.169-6.918v9.94h-1.693V57.403h1.912l4.059 6.735 4.042-6.735h1.911ZM115.394 47.092c-4.737 0-8.65-1.574-11.738-4.722-3.088-3.148-4.633-7.031-4.633-11.648 0-4.648 1.545-8.53 4.633-11.649 3.088-3.148 7.001-4.722 11.738-4.722 2.849 0 5.472.674 7.871 2.024 2.429 1.319 4.318 3.118 5.667 5.396l-5.352 3.104a8.166 8.166 0 0 0-3.328-3.283c-1.44-.81-3.059-1.215-4.858-1.215-3.058 0-5.532.96-7.421 2.879-1.858 1.919-2.788 4.407-2.788 7.465 0 3.029.93 5.503 2.788 7.421 1.889 1.92 4.363 2.879 7.421 2.879 1.799 0 3.418-.39 4.858-1.17 1.469-.81 2.578-1.904 3.328-3.283l5.352 3.104c-1.349 2.278-3.223 4.092-5.622 5.442-2.399 1.319-5.037 1.978-7.916 1.978ZM144.483 47.092c-3.508 0-6.386-.989-8.635-2.968-2.249-1.979-3.373-4.632-3.373-7.96V14.98h6.161V35.67c0 1.649.465 2.953 1.395 3.913.959.96 2.443 1.439 4.452 1.439s3.478-.48 4.408-1.44c.959-.959 1.439-2.263 1.439-3.912V14.98h6.206v21.183c0 3.329-1.124 5.982-3.373 7.961s-5.142 2.968-8.68 2.968ZM181.152 30.137c2.759 1.589 4.138 3.988 4.138 7.196 0 2.668-.945 4.857-2.834 6.566-1.889 1.71-4.212 2.564-6.971 2.564h-13.357V14.98h12.413c2.698 0 4.962.84 6.791 2.519 1.859 1.649 2.788 3.763 2.788 6.341 0 2.609-.989 4.708-2.968 6.297Zm-6.611-9.355h-6.207v6.926h6.207c.959 0 1.754-.33 2.383-.99.66-.659.99-1.483.99-2.473 0-.99-.315-1.814-.945-2.474-.629-.66-1.439-.989-2.428-.989Zm.944 19.879c1.05 0 1.919-.345 2.609-1.034.689-.72 1.034-1.62 1.034-2.699 0-1.05-.345-1.919-1.034-2.608-.69-.72-1.559-1.08-2.609-1.08h-7.151v7.421h7.151ZM209.597 46.463l-1.888-5.667H195.16l-1.888 5.667h-6.702l11.019-31.483h7.691l11.064 31.483h-6.747Zm-12.458-11.469h8.636l-4.318-12.863-4.318 12.863ZM36.267 0l35.276 20.473v40.104L36.267 82 1 60.517V20.353L36.267 0Z" fill="#fff"/><path d="m36.165 24.375 14.392 8.308V49.3l-14.392 8.308L21.774 49.3V32.683l14.391-8.308Z" fill="#E6E6E6"/><path d="M36.339 82 1 60.578 21.347 49.35l14.992 8.555 14.991-8.555 20.346 11.232L36.34 82Z" fill="#EBEBEB"/><path d="M71.674 20.423v40.156L51.328 49.35V33.273l-14.992-8.538V0l35.338 20.423Z" fill="#D9D9D9"/><path d="M.998 20.423v40.156L21.344 49.35V33.273l14.992-8.538V0L.998 20.423Z" fill="#fff"/><path d="m36.34 41.906 14.991 7.445-14.992 8.618-14.991-8.618 14.991-7.445Z" fill="#A9ACB0"/><path d="M36.338 41.906v-17.17L51.33 33.26v16.09l-14.992-7.445Z" fill="#BABABA"/><path d="M36.338 41.906v-17.17L21.346 33.26v16.09l14.992-7.445Z" fill="#E6E6E6"/></svg>